<svg class="t-sociallinks__svg" version="1.1" id="Layer_1" xmlns="http://www.w3.org/2000/svg" xmlns:xlink="http://www.w3.org/1999/xlink" x="0px" y="0px" width="48px" height="48px" viewBox="-615 1477 48 48" enable-background="new -615 1477 48 48" xml:space="preserve"><desc>LinkedIn</desc><path style="fill:#ffffff;" d="M-566.999,1501c0,13.256-10.746,24-24,24c-13.256,0-24.002-10.744-24.002-24c0-13.254,10.746-24,24.002-24C-577.745,1477-566.999,1487.746-566.999,1501z M-605.506,1514.975h6.22v-20.004h-6.22V1514.975z M-602.396,1492.236c1.987,0,3.602-1.615,3.602-3.606c0-1.99-1.615-3.605-3.602-3.605c-1.993,0-3.604,1.615-3.604,3.605C-606,1490.621-604.389,1492.236-602.396,1492.236z M-576,1504.002c0-5.387-1.163-9.529-7.454-9.529c-3.023,0-5.054,1.658-5.884,3.231h-0.085v-2.733h-5.964v20.004h6.216v-9.896c0-2.609,0.493-5.137,3.729-5.137c3.186,0,3.232,2.984,3.232,5.305v9.729H-576V1504.002z"></path></svg> 